# WaveFront *.obj file (generated by Autodesk ATF)

mtllib wire_rect_new.mtl

g wire_rect

v 3.481499 -2.345813 0.940118
v 1.831061 -1.494937 -3.594423
v 1.828092 -1.544177 -3.602582
v 3.478530 -2.395054 0.931959
v -3.713125 -1.494937 -1.576504
v -3.716095 -1.544177 -1.584663
v -3.481499 2.345813 -0.940118
v 2.062687 2.345813 -2.958037
v 2.065657 2.395054 -2.949878
v -3.478530 2.395054 -0.931959
v 3.713125 1.494937 1.576504
v -1.831061 1.494937 3.594423
v -1.828092 1.544177 3.602582
v 3.716095 1.544177 1.584663
v -2.062687 -2.345813 2.958037
v -2.065657 -2.395054 2.949878
v 3.729966 1.486255 1.622775
v -1.814220 1.486255 3.640694
v 2.109672 2.345813 -2.975138
v 3.760110 1.494937 1.559403
v -3.498341 2.354496 -0.986389
v 2.045846 2.354496 -3.004308
v -1.878046 1.494937 3.611524
v -3.528484 2.345813 -0.923017
v -3.760110 -1.494937 -1.559403
v -2.109672 -2.345813 2.975138
v 1.814220 -1.486255 -3.640694
v -3.729966 -1.486255 -1.622775
v 3.528484 -2.345813 0.923017
v 1.878046 -1.494937 -3.611524
v -2.045846 -2.354496 3.004308
v 3.498341 -2.354496 0.986389
v 3.542356 -2.403736 0.961129
v 3.779920 1.535495 1.613833
v -1.858235 1.535495 3.665954
v -2.095800 -2.403736 3.013250
v 2.095800 2.403736 -3.013250
v -3.542356 2.403736 -0.961129
v -3.779920 -1.535495 -1.613833
v 1.858235 -1.535495 -3.665954
vt -0.490000 0.395000 0.000000
vt 0.000000 0.395000 0.000000
vt -0.490000 0.400000 0.000000
vt -0.000000 0.400000 0.000000
vt -0.590000 0.395000 0.000000
vt 0.000000 0.395000 0.000000
vt -0.590000 0.400000 0.000000
vt 0.000000 0.400000 0.000000
vt 0.000000 0.005000 0.000000
vt -0.590000 0.005000 0.000000
vt -0.000000 -0.000000 0.000000
vt -0.590000 0.000000 0.000000
vt 0.000000 0.005000 0.000000
vt -0.590000 0.005000 0.000000
vt -0.000000 -0.000000 0.000000
vt -0.590000 -0.000000 0.000000
vt -0.590000 0.395000 0.000000
vt 0.000000 0.395000 0.000000
vt -0.590000 0.400000 0.000000
vt -0.000000 0.400000 0.000000
vt -0.490000 0.395000 0.000000
vt 0.000000 0.395000 0.000000
vt -0.490000 0.400000 0.000000
vt 0.000000 0.400000 0.000000
vt 0.000000 0.005000 0.000000
vt -0.490000 0.005000 0.000000
vt -0.000000 -0.000000 0.000000
vt -0.490000 -0.000000 0.000000
vt 0.000000 0.005000 0.000000
vt -0.490000 0.005000 0.000000
vt -0.000000 -0.000000 0.000000
vt -0.490000 0.000000 0.000000
vt 0.590000 -0.245000 0.000000
vt -0.000000 -0.245000 0.000000
vt 0.590000 -0.250000 0.000000
vt -0.000000 -0.250000 0.000000
vt -0.000000 0.245000 0.000000
vt -0.005000 0.245000 0.000000
vt -0.000000 -0.245000 0.000000
vt -0.005000 -0.245000 0.000000
vt 0.590000 0.245000 0.000000
vt -0.000000 0.250000 0.000000
vt 0.590000 0.250000 0.000000
vt 0.590000 -0.245000 0.000000
vt 0.595000 -0.245000 0.000000
vt 0.590000 0.245000 0.000000
vt 0.595000 0.245000 0.000000
vt -0.000000 0.245000 0.000000
vt -0.005000 0.245000 0.000000
vt -0.000000 -0.245000 0.000000
vt -0.005000 -0.245000 0.000000
vt 0.590000 0.245000 0.000000
vt -0.000000 0.250000 0.000000
vt 0.590000 0.250000 0.000000
vt 0.590000 -0.245000 0.000000
vt 0.595000 -0.245000 0.000000
vt 0.590000 0.245000 0.000000
vt 0.595000 0.245000 0.000000
vt -0.000000 -0.245000 0.000000
vt 0.590000 -0.250000 0.000000
vt -0.000000 -0.250000 0.000000
vt -0.390000 0.595000 0.000000
vt -0.000000 0.595000 0.000000
vt -0.390000 0.600000 0.000000
vt 0.000000 0.600000 0.000000
vt -0.390000 0.595000 0.000000
vt -0.000000 0.595000 0.000000
vt -0.390000 0.600000 0.000000
vt -0.000000 0.600000 0.000000
vt 0.000000 0.005000 0.000000
vt -0.390000 0.005000 0.000000
vt 0.000000 0.000000 0.000000
vt -0.390000 -0.000000 0.000000
vt -0.000000 0.005000 0.000000
vt -0.390000 0.005000 0.000000
vt -0.000000 0.000000 0.000000
vt -0.390000 0.000000 0.000000
vt -0.000000 0.245000 0.000000
vt 0.390000 0.245000 0.000000
vt 0.000000 0.250000 0.000000
vt 0.390000 0.250000 0.000000
vt -0.000000 0.245000 0.000000
vt 0.390000 0.245000 0.000000
vt 0.000000 0.250000 0.000000
vt 0.390000 0.250000 0.000000
vt 0.295000 0.195000 0.000000
vt 0.295000 -0.195000 0.000000
vt 0.300000 -0.200000 0.000000
vt -0.295000 -0.195000 0.000000
vt -0.300000 -0.200000 0.000000
vt -0.295000 0.195000 0.000000
vt -0.300000 0.200000 0.000000
vt 0.300000 0.200000 0.000000
vt 0.390000 -0.245000 0.000000
vt 0.000000 -0.245000 0.000000
vt 0.390000 -0.250000 0.000000
vt 0.000000 -0.250000 0.000000
vt 0.390000 -0.245000 0.000000
vt -0.000000 -0.245000 0.000000
vt 0.390000 -0.250000 0.000000
vt 0.000000 -0.250000 0.000000
vt 0.595000 -0.245000 0.000000
vt 0.600000 -0.250000 0.000000
vt 0.595000 0.245000 0.000000
vt 0.600000 0.250000 0.000000
vt 0.000000 0.250000 0.000000
vt 0.005000 -0.245000 0.000000
vt -0.000000 -0.250000 0.000000
vt 0.005000 0.245000 0.000000
vt 0.395000 0.245000 0.000000
vt 0.000000 0.250000 0.000000
vt 0.005000 0.245000 0.000000
vt 0.000000 -0.250000 0.000000
vt 0.005000 -0.245000 0.000000
vt 0.400000 -0.250000 0.000000
vt 0.395000 -0.245000 0.000000
vt 0.400000 0.250000 0.000000
vt 0.005000 0.245000 0.000000
vt 0.000000 -0.250000 0.000000
vt 0.005000 -0.245000 0.000000
vt 0.600000 -0.250000 0.000000
vt 0.595000 -0.245000 0.000000
vt 0.595000 0.245000 0.000000
vt 0.600000 0.250000 0.000000
vt -0.000000 0.250000 0.000000
vt 0.395000 0.245000 0.000000
vt -0.000000 0.250000 0.000000
vt 0.005000 0.245000 0.000000
vt -0.000000 -0.250000 0.000000
vt 0.005000 -0.245000 0.000000
vt 0.400000 -0.250000 0.000000
vt 0.395000 -0.245000 0.000000
vt 0.400000 0.250000 0.000000
vt 0.295000 0.195000 0.000000
vt 0.295000 -0.195000 0.000000
vt 0.300000 -0.200000 0.000000
vt -0.295000 -0.195000 0.000000
vt -0.300000 -0.200000 0.000000
vt -0.295000 0.195000 0.000000
vt -0.300000 0.200000 0.000000
vt 0.300000 0.200000 0.000000
vn -0.093969 -0.000000 0.034202
vn -0.093969 -0.000000 0.034202
vn -0.093969 -0.000000 0.034202
vn -0.093969 -0.000000 0.034202
vn 0.033682 -0.017365 0.092542
vn 0.033682 -0.017365 0.092542
vn 0.033682 -0.017365 0.092542
vn 0.033682 -0.017365 0.092542
vn 0.033682 -0.017365 0.092542
vn 0.033682 -0.017365 0.092542
vn 0.033682 -0.017365 0.092542
vn 0.033682 -0.017365 0.092542
vn -0.033682 0.017365 -0.092542
vn -0.033682 0.017365 -0.092542
vn -0.033682 0.017365 -0.092542
vn -0.033682 0.017365 -0.092542
vn -0.033682 0.017365 -0.092542
vn -0.033682 0.017365 -0.092542
vn -0.033682 0.017365 -0.092542
vn -0.033682 0.017365 -0.092542
vn 0.093969 0.000000 -0.034202
vn 0.093969 0.000000 -0.034202
vn 0.093969 0.000000 -0.034202
vn 0.093969 0.000000 -0.034202
vn 0.093969 0.000000 -0.034202
vn 0.093969 0.000000 -0.034202
vn 0.093969 0.000000 -0.034202
vn 0.093969 0.000000 -0.034202
vn -0.093969 -0.000000 0.034202
vn -0.093969 -0.000000 0.034202
vn -0.093969 -0.000000 0.034202
vn -0.093969 -0.000000 0.034202
vn -0.005939 -0.098481 -0.016318
vn -0.005939 -0.098481 -0.016318
vn -0.005939 -0.098481 -0.016318
vn -0.005939 -0.098481 -0.016318
vn -0.005939 -0.098481 -0.016318
vn -0.005939 -0.098481 -0.016318
vn -0.005939 -0.098481 -0.016318
vn -0.005939 -0.098481 -0.016318
vn -0.005939 -0.098481 -0.016318
vn -0.005939 -0.098481 -0.016318
vn -0.005939 -0.098481 -0.016318
vn -0.005939 -0.098481 -0.016318
vn 0.005939 0.098481 0.016318
vn 0.005939 0.098481 0.016318
vn 0.005939 0.098481 0.016318
vn 0.005939 0.098481 0.016318
vn 0.005939 0.098481 0.016318
vn 0.005939 0.098481 0.016318
vn 0.005939 0.098481 0.016318
vn 0.005939 0.098481 0.016318
vn 0.005939 0.098481 0.016318
vn 0.005939 0.098481 0.016318
vn 0.005939 0.098481 0.016318
vn 0.005939 0.098481 0.016318
vn -0.033682 0.017365 -0.092542
vn -0.033682 0.017365 -0.092542
vn 0.033682 -0.017365 0.092542
vn 0.033682 -0.017365 0.092542
vn 0.033682 -0.017365 0.092542
vn 0.033682 -0.017365 0.092542
vn -0.033682 0.017365 -0.092542
vn -0.033682 0.017365 -0.092542
vn -0.093969 -0.000000 0.034202
vn -0.093969 -0.000000 0.034202
vn 0.093969 0.000000 -0.034202
vn 0.093969 0.000000 -0.034202
vn 0.033682 -0.017365 0.092542
vn 0.033682 -0.017365 0.092542
vn 0.033682 -0.017365 0.092542
vn 0.033682 -0.017365 0.092542
vn 0.033682 -0.017365 0.092542
vn 0.033682 -0.017365 0.092542
vn 0.033682 -0.017365 0.092542
vn 0.033682 -0.017365 0.092542
vn 0.093969 0.000000 -0.034202
vn 0.093969 0.000000 -0.034202
vn -0.093969 -0.000000 0.034202
vn -0.093969 -0.000000 0.034202
vn 0.005939 0.098481 0.016318
vn 0.005939 0.098481 0.016318
vn 0.005939 0.098481 0.016318
vn 0.005939 0.098481 0.016318
vn 0.005939 0.098481 0.016318
vn 0.005939 0.098481 0.016318
vn 0.005939 0.098481 0.016318
vn 0.005939 0.098481 0.016318
vn -0.093969 -0.000000 0.034202
vn -0.093969 -0.000000 0.034202
vn -0.093969 -0.000000 0.034202
vn -0.093969 -0.000000 0.034202
vn -0.093969 -0.000000 0.034202
vn -0.093969 -0.000000 0.034202
vn -0.093969 -0.000000 0.034202
vn -0.093969 -0.000000 0.034202
vn -0.005939 -0.098481 -0.016318
vn -0.005939 -0.098481 -0.016318
vn -0.005939 -0.098481 -0.016318
vn -0.005939 -0.098481 -0.016318
vn -0.005939 -0.098481 -0.016318
vn -0.005939 -0.098481 -0.016318
vn -0.005939 -0.098481 -0.016318
vn -0.005939 -0.098481 -0.016318
vn 0.093969 0.000000 -0.034202
vn 0.093969 0.000000 -0.034202
vn 0.093969 0.000000 -0.034202
vn 0.093969 0.000000 -0.034202
vn 0.093969 0.000000 -0.034202
vn 0.093969 0.000000 -0.034202
vn 0.093969 0.000000 -0.034202
vn 0.093969 0.000000 -0.034202
vn -0.033682 0.017365 -0.092542
vn -0.033682 0.017365 -0.092542
vn -0.033682 0.017365 -0.092542
vn -0.033682 0.017365 -0.092542
vn -0.033682 0.017365 -0.092542
vn -0.033682 0.017365 -0.092542
vn -0.033682 0.017365 -0.092542
vn -0.033682 0.017365 -0.092542
usemtl Stahl_-_satiniert
f 1/1/1 2/2/2 4/3/3
f 4/3/3 2/2/2 3/4/4
f 2/5/5 5/6/6 3/7/7
f 3/7/7 5/6/6 6/8/8
f 7/9/9 8/10/10 10/11/11
f 10/11/11 8/10/10 9/12/12
f 11/13/13 12/14/14 14/15/15
f 14/15/15 12/14/14 13/16/16
f 15/17/17 1/18/18 16/19/19
f 16/19/19 1/18/18 4/20/20
f 5/21/21 15/22/22 6/23/23
f 6/23/23 15/22/22 16/24/24
f 12/25/25 7/26/26 13/27/27
f 13/27/27 7/26/26 10/28/28
f 8/29/29 11/30/30 9/31/31
f 9/31/31 11/30/30 14/32/32
f 12/33/33 11/34/34 18/35/35
f 18/35/35 11/34/34 17/36/36
f 8/37/37 19/38/38 11/39/34
f 11/39/34 19/38/38 20/40/39
f 8/37/37 7/41/40 22/42/41
f 22/42/41 7/41/40 21/43/42
f 12/44/33 23/45/43 7/46/40
f 7/46/40 23/45/43 24/47/44
f 5/48/45 25/49/46 15/50/47
f 15/50/47 25/49/46 26/51/48
f 5/48/45 2/52/49 28/53/50
f 28/53/50 2/52/49 27/54/51
f 1/55/52 29/56/53 2/57/49
f 2/57/49 29/56/53 30/58/54
f 1/55/52 15/59/47 32/60/55
f 32/60/55 15/59/47 31/61/56
f 12/62/14 15/63/17 23/64/57
f 23/64/57 15/63/17 26/65/58
f 5/66/6 7/67/9 25/68/59
f 25/68/59 7/67/9 24/69/60
f 8/70/10 2/71/5 19/72/61
f 19/72/61 2/71/5 30/73/62
f 1/74/18 11/75/13 29/76/63
f 29/76/63 11/75/13 20/77/64
f 2/78/2 8/79/29 27/80/65
f 27/80/65 8/79/29 22/81/66
f 7/82/26 5/83/21 21/84/67
f 21/84/67 5/83/21 28/85/68
f 17/86/69 32/87/70 33/88/71
f 33/88/71 32/87/70 31/89/72
f 33/88/71 31/89/72 36/90/73
f 36/90/73 31/89/72 18/91/74
f 36/90/73 18/91/74 35/92/75
f 35/92/75 18/91/74 17/86/69
f 35/92/75 17/86/69 34/93/76
f 34/93/76 17/86/69 33/88/71
f 15/94/22 12/95/25 31/96/77
f 31/96/77 12/95/25 18/97/78
f 11/98/30 1/99/1 17/100/79
f 17/100/79 1/99/1 32/101/80
f 14/102/81 34/103/82 9/104/83
f 9/104/83 34/103/82 37/105/84
f 9/104/83 37/105/84 38/106/85
f 14/102/81 13/107/86 34/103/82
f 34/103/82 13/107/86 35/108/87
f 35/108/87 13/107/86 10/109/88
f 35/108/87 10/109/88 38/106/85
f 38/106/85 10/109/88 9/104/83
f 24/110/89 39/111/90 25/112/91
f 25/112/91 39/111/90 36/113/92
f 25/112/91 36/113/92 26/114/93
f 26/114/93 36/113/92 35/115/94
f 26/114/93 35/115/94 23/116/95
f 23/116/95 35/115/94 24/110/89
f 24/110/89 35/115/94 38/117/96
f 24/110/89 38/117/96 39/111/90
f 3/118/97 33/119/98 4/120/99
f 4/120/99 33/119/98 36/121/100
f 4/120/99 36/121/100 16/122/101
f 16/122/101 36/121/100 6/123/102
f 6/123/102 36/121/100 39/124/103
f 6/123/102 39/124/103 40/125/104
f 33/119/98 3/118/97 40/125/104
f 40/125/104 3/118/97 6/123/102
f 30/126/105 37/127/106 19/128/107
f 19/128/107 37/127/106 34/129/108
f 19/128/107 34/129/108 20/130/109
f 20/130/109 34/129/108 33/131/110
f 20/130/109 33/131/110 29/132/111
f 29/132/111 33/131/110 30/126/105
f 30/126/105 33/131/110 40/133/112
f 30/126/105 40/133/112 37/127/106
f 21/134/113 28/135/114 39/136/115
f 39/136/115 28/135/114 27/137/116
f 39/136/115 27/137/116 40/138/117
f 40/138/117 27/137/116 22/139/118
f 40/138/117 22/139/118 37/140/119
f 37/140/119 22/139/118 21/134/113
f 37/140/119 21/134/113 38/141/120
f 38/141/120 21/134/113 39/136/115
# 40 vertices
# 141 texture params
# 120 normals
# 96 facets

# 1 groups
