# WaveFront *.obj file (generated by Autodesk ATF)

mtllib cube.mtl

g cube

v -1.166614 -0.296203 1.884483
v -6.148357 -0.263745 1.458818
v -6.128882 -3.229123 1.004775
v -1.147140 -3.261581 1.430440
v -5.807825 0.341645 -2.480413
v -0.826083 0.309187 -2.054748
v -0.806608 -2.656191 -2.508791
v -5.788350 -2.623733 -2.934456
vt 0.150000 0.250000 0.000000
vt -0.150000 0.250000 0.000000
vt 0.150000 -0.250000 0.000000
vt -0.150000 -0.250000 0.000000
vt -0.150000 -0.250000 0.000000
vt 0.150000 -0.250000 0.000000
vt -0.150000 0.250000 0.000000
vt 0.150000 0.250000 0.000000
vt -0.200000 -0.150000 0.000000
vt 0.200000 -0.150000 0.000000
vt -0.200000 0.150000 0.000000
vt 0.200000 0.150000 0.000000
vt 0.200000 0.250000 0.000000
vt -0.200000 0.250000 0.000000
vt 0.200000 -0.250000 0.000000
vt -0.200000 -0.250000 0.000000
vt 0.200000 0.150000 0.000000
vt -0.200000 0.150000 0.000000
vt 0.200000 -0.150000 0.000000
vt -0.200000 -0.150000 0.000000
vt -0.200000 -0.250000 0.000000
vt 0.200000 -0.250000 0.000000
vt -0.200000 0.250000 0.000000
vt 0.200000 0.250000 0.000000
vn -0.008513 -0.015135 0.098481
vn -0.008513 -0.015135 0.098481
vn -0.008513 -0.015135 0.098481
vn -0.008513 -0.015135 0.098481
vn 0.008513 0.015135 -0.098481
vn 0.008513 0.015135 -0.098481
vn 0.008513 0.015135 -0.098481
vn 0.008513 0.015135 -0.098481
vn 0.099635 -0.000649 0.008513
vn 0.099635 -0.000649 0.008513
vn 0.099635 -0.000649 0.008513
vn 0.099635 -0.000649 0.008513
vn 0.000649 -0.098846 -0.015135
vn 0.000649 -0.098846 -0.015135
vn 0.000649 -0.098846 -0.015135
vn 0.000649 -0.098846 -0.015135
vn -0.099635 0.000649 -0.008513
vn -0.099635 0.000649 -0.008513
vn -0.099635 0.000649 -0.008513
vn -0.099635 0.000649 -0.008513
vn -0.000649 0.098846 0.015135
vn -0.000649 0.098846 0.015135
vn -0.000649 0.098846 0.015135
vn -0.000649 0.098846 0.015135
usemtl Stahl_-_satiniert
f 2/1/1 3/2/2 1/3/3
f 1/3/3 3/2/2 4/4/4
f 6/5/5 7/6/6 5/7/7
f 5/7/7 7/6/6 8/8/8
f 4/9/9 7/10/10 1/11/11
f 1/11/11 7/10/10 6/12/12
f 3/13/13 8/14/14 4/15/15
f 4/15/15 8/14/14 7/16/16
f 2/17/17 5/18/18 3/19/19
f 3/19/19 5/18/18 8/20/20
f 1/21/21 6/22/22 2/23/23
f 2/23/23 6/22/22 5/24/24
# 8 vertices
# 24 texture params
# 24 normals
# 12 facets

# 1 groups
