# WaveFront *.obj file (generated by Autodesk ATF)

mtllib zylinder.mtl

g zylinder

v 6.498986 -3.501803 -0.023648
v 6.436560 -3.555643 -0.372600
v 6.312094 -3.607335 -0.704864
v 6.129588 -3.655217 -1.009761
v 5.894907 -3.697752 -1.277491
v 5.615596 -3.733571 -1.499449
v 5.300630 -3.761524 -1.668500
v 4.960134 -3.780712 -1.779213
v 4.605050 -3.790518 -1.828027
v 4.246792 -3.790628 -1.813375
v 3.896875 -3.781037 -1.735728
v 3.566545 -3.762054 -1.597579
v 3.266419 -3.734289 -1.403372
v 3.006143 -3.698634 -1.159346
v 2.794083 -3.656236 -0.873345
v 2.637055 -3.608457 -0.554562
v 2.540106 -3.556833 -0.213242
v 2.506351 -3.503022 0.139643
v 2.536876 -3.448756 0.492753
v 2.630700 -3.395777 0.834738
v 2.784807 -3.345788 1.154606
v 2.994243 -3.300397 1.442077
v 3.252278 -3.261061 1.687910
v 3.550618 -3.229046 1.884205
v 3.879673 -3.205381 2.024653
v 4.228869 -3.190825 2.104739
v 4.586981 -3.185847 2.121889
v 4.942500 -3.190607 2.075553
v 5.283999 -3.204952 1.967218
v 5.600501 -3.228420 1.800369
v 5.881834 -3.260258 1.580366
v 6.118957 -3.299443 1.314282
v 6.304246 -3.344713 1.010668
v 6.431748 -3.394616 0.679282
v 6.497364 -3.447546 0.330777
v 5.463687 2.435444 -0.846600
v 5.453557 2.473287 -0.599014
v 5.381459 2.509159 -0.361635
v 5.251923 2.540808 -0.149379
v 5.073089 2.566244 0.024417
v 4.856194 2.583870 0.148833
v 4.614865 2.592577 0.216052
v 4.364267 2.591819 0.221849
v 4.120145 2.581643 0.165861
v 3.897839 2.562689 0.051606
v 3.711316 2.536148 -0.113738
v 3.572297 2.503686 -0.319781
v 3.489517 2.467345 -0.553576
v 3.468177 2.429407 -0.800435
v 3.509618 2.392257 -1.044844
v 3.611236 2.358228 -1.271449
v 3.766647 2.329459 -1.466009
v 3.966084 2.307757 -1.616300
v 4.197017 2.294486 -1.712879
v 4.444935 2.290479 -1.749677
v 4.694261 2.295990 -1.724383
v 4.929329 2.310671 -1.638584
v 5.135368 2.333599 -1.497674
v 5.299433 2.363335 -1.310504
v 5.411214 2.398010 -1.088837
vt 0.304138 0.444311 0.000000
vt 0.304138 0.471239 0.000000
vt -0.304138 0.471239 0.000000
vt -0.304138 -0.471239 0.000000
vt 0.304138 -0.471239 0.000000
vt 0.304138 -0.444311 0.000000
vt -0.304138 -0.433540 0.000000
vt 0.304138 -0.417383 0.000000
vt -0.304138 -0.395841 0.000000
vt 0.304138 -0.390455 0.000000
vt 0.304138 -0.363527 0.000000
vt -0.304138 -0.358142 0.000000
vt 0.304138 -0.336599 0.000000
vt -0.304138 -0.320442 0.000000
vt 0.304138 -0.309671 0.000000
vt -0.304138 -0.282743 0.000000
vt 0.304138 -0.282743 0.000000
vt 0.304138 -0.255815 0.000000
vt -0.304138 -0.245044 0.000000
vt 0.304138 -0.228887 0.000000
vt -0.304138 -0.207345 0.000000
vt 0.304138 -0.201960 0.000000
vt 0.304138 -0.175032 0.000000
vt -0.304138 -0.169646 0.000000
vt 0.304138 -0.148104 0.000000
vt -0.304138 -0.131947 0.000000
vt 0.304138 -0.121176 0.000000
vt -0.304138 -0.094248 0.000000
vt 0.304138 -0.094248 0.000000
vt 0.304138 -0.067320 0.000000
vt -0.304138 -0.056549 0.000000
vt 0.304138 -0.040392 0.000000
vt -0.304138 -0.018850 0.000000
vt 0.304138 -0.013464 0.000000
vt 0.304138 0.013464 0.000000
vt -0.304138 0.018850 0.000000
vt 0.304138 0.040392 0.000000
vt -0.304138 0.056549 0.000000
vt 0.304138 0.067320 0.000000
vt -0.304138 0.094248 0.000000
vt 0.304138 0.094248 0.000000
vt 0.304138 0.121176 0.000000
vt -0.304138 0.131947 0.000000
vt 0.304138 0.148104 0.000000
vt -0.304138 0.169646 0.000000
vt 0.304138 0.175032 0.000000
vt 0.304138 0.201960 0.000000
vt -0.304138 0.207345 0.000000
vt 0.304138 0.228887 0.000000
vt -0.304138 0.245044 0.000000
vt 0.304138 0.255815 0.000000
vt -0.304138 0.282743 0.000000
vt 0.304138 0.282743 0.000000
vt 0.304138 0.309671 0.000000
vt -0.304138 0.320442 0.000000
vt 0.304138 0.336599 0.000000
vt -0.304138 0.358142 0.000000
vt 0.304138 0.363527 0.000000
vt 0.304138 0.390455 0.000000
vt -0.304138 0.395841 0.000000
vt 0.304138 0.417383 0.000000
vt -0.304138 0.433540 0.000000
vt 0.096858 -0.024869 0.000000
vt 0.100000 0.000000 0.000000
vt -0.042578 -0.090483 0.000000
vt 0.096858 0.024869 0.000000
vt 0.087631 0.048175 0.000000
vt 0.072897 0.068455 0.000000
vt 0.053583 0.084433 0.000000
vt 0.030902 0.095106 0.000000
vt 0.006279 0.099803 0.000000
vt -0.018738 0.098229 0.000000
vt -0.042578 0.090483 0.000000
vt -0.063742 -0.077051 0.000000
vt -0.063742 0.077051 0.000000
vt -0.080902 -0.058779 0.000000
vt -0.080902 0.058779 0.000000
vt -0.092978 -0.036812 0.000000
vt -0.092978 0.036812 0.000000
vt -0.099211 -0.012533 0.000000
vt -0.099211 0.012533 0.000000
vt -0.018738 -0.098229 0.000000
vt 0.030902 -0.095106 0.000000
vt 0.053583 -0.084433 0.000000
vt 0.072897 -0.068455 0.000000
vt 0.006279 -0.099803 0.000000
vt 0.087631 -0.048175 0.000000
vt -0.200000 -0.000000 0.000000
vt -0.196786 -0.035711 0.000000
vt -0.196786 0.035711 0.000000
vt -0.187247 0.070275 0.000000
vt -0.187247 -0.070275 0.000000
vt -0.171690 0.102580 0.000000
vt -0.171690 -0.102580 0.000000
vt -0.150614 0.131588 0.000000
vt -0.124698 0.156366 0.000000
vt -0.094774 0.176119 0.000000
vt -0.061803 0.190211 0.000000
vt -0.026847 0.198190 0.000000
vt 0.008973 0.199799 0.000000
vt 0.044504 0.194986 0.000000
vt 0.078605 0.183906 0.000000
vt 0.110179 0.166915 0.000000
vt 0.138213 0.144559 0.000000
vt -0.150614 -0.131588 0.000000
vt 0.161803 0.117557 0.000000
vt 0.180194 0.086777 0.000000
vt 0.192793 0.053207 0.000000
vt 0.199195 0.017928 0.000000
vt 0.199195 -0.017928 0.000000
vt 0.192793 -0.053207 0.000000
vt 0.180194 -0.086777 0.000000
vt 0.161803 -0.117557 0.000000
vt 0.138213 -0.144559 0.000000
vt -0.124698 -0.156366 0.000000
vt 0.110179 -0.166915 0.000000
vt -0.094774 -0.176119 0.000000
vt 0.078605 -0.183906 0.000000
vt -0.061803 -0.190211 0.000000
vt 0.044504 -0.194986 0.000000
vt -0.026847 -0.198190 0.000000
vt 0.008973 -0.199799 0.000000
vn 0.098093 0.018286 0.006595
vn 0.098172 0.015610 -0.010886
vn 0.098172 0.015610 -0.010886
vn 0.095094 0.012954 -0.028096
vn 0.092996 0.011917 -0.034780
vn 0.088955 0.010405 -0.044483
vn 0.081970 0.008497 -0.056645
vn 0.079954 0.008043 -0.059520
vn 0.068380 0.005946 -0.072725
vn 0.065787 0.005564 -0.075107
vn 0.054604 0.004179 -0.083672
vn 0.045464 0.003302 -0.089006
vn 0.039070 0.002800 -0.092009
vn 0.022277 0.001854 -0.097470
vn 0.022277 0.001854 -0.097470
vn 0.004764 0.001371 -0.099877
vn -0.002317 0.001311 -0.099965
vn -0.012905 0.001365 -0.099154
vn -0.026771 0.001706 -0.096335
vn -0.030163 0.001838 -0.095325
vn -0.046455 0.002774 -0.088511
vn -0.049550 0.003015 -0.086808
vn -0.061257 0.004144 -0.078933
vn -0.069223 0.005155 -0.071984
vn -0.074093 0.005902 -0.066898
vn -0.084552 0.007993 -0.052792
vn -0.084552 0.007993 -0.052792
vn -0.092297 0.010350 -0.037070
vn -0.094576 0.011350 -0.030440
vn -0.097078 0.012896 -0.020236
vn -0.098663 0.015014 -0.006332
vn -0.098743 0.015550 -0.002832
vn -0.097238 0.018226 0.014583
vn -0.096558 0.018757 0.018018
vn -0.092610 0.020839 0.031450
vn -0.088393 0.022341 0.041080
vn -0.085010 0.023304 0.047226
vn -0.074680 0.025543 0.061404
vn -0.074680 0.025543 0.061404
vn -0.061954 0.027483 0.073528
vn -0.056282 0.028161 0.077713
vn -0.047240 0.029062 0.083209
vn -0.034354 0.030031 0.088983
vn -0.031011 0.030229 0.090136
vn -0.013789 0.030947 0.094086
vn -0.010274 0.031035 0.094506
vn 0.003873 0.031193 0.094932
vn 0.014445 0.031109 0.093934
vn 0.021407 0.030958 0.092646
vn 0.038250 0.030250 0.087303
vn 0.038250 0.030250 0.087303
vn 0.053859 0.029093 0.079074
vn 0.059644 0.028512 0.075031
vn 0.067735 0.027523 0.068224
vn 0.077284 0.026003 0.057888
vn 0.079430 0.025590 0.055101
vn 0.088568 0.023357 0.040127
vn 0.090062 0.022881 0.036951
vn 0.094856 0.020896 0.023783
vn 0.097173 0.019343 0.013536
vn -0.000649 0.098846 -0.015135
vn -0.000649 0.098846 -0.015135
vn -0.000649 0.098846 -0.015135
vn -0.000649 0.098846 -0.015135
vn -0.000649 0.098846 -0.015135
vn -0.000649 0.098846 -0.015135
vn -0.000649 0.098846 -0.015135
vn -0.000649 0.098846 -0.015135
vn -0.000649 0.098846 -0.015135
vn -0.000649 0.098846 -0.015135
vn -0.000649 0.098846 -0.015135
vn -0.000649 0.098846 -0.015135
vn -0.000649 0.098846 -0.015135
vn -0.000649 0.098846 -0.015135
vn -0.000649 0.098846 -0.015135
vn -0.000649 0.098846 -0.015135
vn -0.000649 0.098846 -0.015135
vn -0.000649 0.098846 -0.015135
vn -0.000649 0.098846 -0.015135
vn -0.000649 0.098846 -0.015135
vn -0.000649 0.098846 -0.015135
vn -0.000649 0.098846 -0.015135
vn -0.000649 0.098846 -0.015135
vn -0.000649 0.098846 -0.015135
vn -0.000649 0.098846 -0.015135
vn 0.000649 -0.098846 0.015135
vn 0.000649 -0.098846 0.015135
vn 0.000649 -0.098846 0.015135
vn 0.000649 -0.098846 0.015135
vn 0.000649 -0.098846 0.015135
vn 0.000649 -0.098846 0.015135
vn 0.000649 -0.098846 0.015135
vn 0.000649 -0.098846 0.015135
vn 0.000649 -0.098846 0.015135
vn 0.000649 -0.098846 0.015135
vn 0.000649 -0.098846 0.015135
vn 0.000649 -0.098846 0.015135
vn 0.000649 -0.098846 0.015135
vn 0.000649 -0.098846 0.015135
vn 0.000649 -0.098846 0.015135
vn 0.000649 -0.098846 0.015135
vn 0.000649 -0.098846 0.015135
vn 0.000649 -0.098846 0.015135
vn 0.000649 -0.098846 0.015135
vn 0.000649 -0.098846 0.015135
vn 0.000649 -0.098846 0.015135
vn 0.000649 -0.098846 0.015135
vn 0.000649 -0.098846 0.015135
vn 0.000649 -0.098846 0.015135
vn 0.000649 -0.098846 0.015135
vn 0.000649 -0.098846 0.015135
vn 0.000649 -0.098846 0.015135
vn 0.000649 -0.098846 0.015135
vn 0.000649 -0.098846 0.015135
vn 0.000649 -0.098846 0.015135
vn 0.000649 -0.098846 0.015135
vn 0.000649 -0.098846 0.015135
vn 0.000649 -0.098846 0.015135
vn 0.000649 -0.098846 0.015135
vn 0.000649 -0.098846 0.015135
usemtl Stahl_-_satiniert
f 35/1/1 1/2/2 36/3/3
f 36/4/3 1/5/2 2/6/4
f 36/4/3 2/6/4 60/7/5
f 60/7/5 2/6/4 3/8/6
f 60/7/5 3/8/6 59/9/7
f 59/9/7 3/8/6 4/10/8
f 59/9/7 4/10/8 5/11/9
f 59/9/7 5/11/9 58/12/10
f 58/12/10 5/11/9 6/13/11
f 58/12/10 6/13/11 57/14/12
f 57/14/12 6/13/11 7/15/13
f 57/14/12 7/15/13 56/16/14
f 56/16/14 7/15/13 8/17/15
f 56/16/14 8/17/15 9/18/16
f 56/16/14 9/18/16 55/19/17
f 55/19/17 9/18/16 10/20/18
f 55/19/17 10/20/18 54/21/19
f 54/21/19 10/20/18 11/22/20
f 54/21/19 11/22/20 12/23/21
f 54/21/19 12/23/21 53/24/22
f 53/24/22 12/23/21 13/25/23
f 53/24/22 13/25/23 52/26/24
f 52/26/24 13/25/23 14/27/25
f 52/26/24 14/27/25 51/28/26
f 51/28/26 14/27/25 15/29/27
f 51/28/26 15/29/27 16/30/28
f 51/28/26 16/30/28 50/31/29
f 50/31/29 16/30/28 17/32/30
f 50/31/29 17/32/30 49/33/31
f 49/33/31 17/32/30 18/34/32
f 49/33/31 18/34/32 19/35/33
f 49/33/31 19/35/33 48/36/34
f 48/36/34 19/35/33 20/37/35
f 48/36/34 20/37/35 47/38/36
f 47/38/36 20/37/35 21/39/37
f 47/38/36 21/39/37 46/40/38
f 46/40/38 21/39/37 22/41/39
f 46/40/38 22/41/39 23/42/40
f 46/40/38 23/42/40 45/43/41
f 45/43/41 23/42/40 24/44/42
f 45/43/41 24/44/42 44/45/43
f 44/45/43 24/44/42 25/46/44
f 44/45/43 25/46/44 26/47/45
f 44/45/43 26/47/45 43/48/46
f 43/48/46 26/47/45 27/49/47
f 43/48/46 27/49/47 42/50/48
f 42/50/48 27/49/47 28/51/49
f 42/50/48 28/51/49 41/52/50
f 41/52/50 28/51/49 29/53/51
f 41/52/50 29/53/51 30/54/52
f 41/52/50 30/54/52 40/55/53
f 40/55/53 30/54/52 31/56/54
f 40/55/53 31/56/54 39/57/55
f 39/57/55 31/56/54 32/58/56
f 39/57/55 32/58/56 33/59/57
f 39/57/55 33/59/57 38/60/58
f 38/60/58 33/59/57 34/61/59
f 38/60/58 34/61/59 37/62/60
f 37/62/60 34/61/59 35/1/1
f 37/62/60 35/1/1 36/3/3
f 37/63/61 36/64/62 44/65/63
f 44/65/63 36/64/62 60/66/64
f 44/65/63 60/66/64 59/67/65
f 59/67/65 58/68/66 44/65/63
f 44/65/63 58/68/66 57/69/67
f 44/65/63 57/69/67 56/70/68
f 56/70/68 55/71/69 44/65/63
f 44/65/63 55/71/69 54/72/70
f 44/65/63 54/72/70 53/73/71
f 44/65/63 53/73/71 45/74/72
f 45/74/72 53/73/71 52/75/73
f 45/74/72 52/75/73 46/76/74
f 46/76/74 52/75/73 51/77/75
f 46/76/74 51/77/75 47/78/76
f 47/78/76 51/77/75 50/79/77
f 47/78/76 50/79/77 48/80/78
f 48/80/78 50/79/77 49/81/79
f 43/82/80 41/83/81 44/65/63
f 44/65/63 41/83/81 40/84/82
f 44/65/63 40/84/82 39/85/83
f 43/82/80 42/86/84 41/83/81
f 39/85/83 38/87/85 44/65/63
f 44/65/63 38/87/85 37/63/61
f 1/88/86 35/89/87 2/90/88
f 2/90/88 35/89/87 3/91/89
f 3/91/89 35/89/87 34/92/90
f 3/91/89 34/92/90 4/93/91
f 4/93/91 34/92/90 33/94/92
f 4/93/91 33/94/92 5/95/93
f 5/95/93 33/94/92 6/96/94
f 6/96/94 33/94/92 7/97/95
f 7/97/95 33/94/92 8/98/96
f 8/98/96 33/94/92 9/99/97
f 9/99/97 33/94/92 10/100/98
f 10/100/98 33/94/92 11/101/99
f 11/101/99 33/94/92 12/102/100
f 12/102/100 33/94/92 13/103/101
f 13/103/101 33/94/92 14/104/102
f 14/104/102 33/94/92 32/105/103
f 14/104/102 32/105/103 15/106/104
f 15/106/104 32/105/103 16/107/105
f 16/107/105 32/105/103 17/108/106
f 17/108/106 32/105/103 18/109/107
f 18/109/107 32/105/103 19/110/108
f 19/110/108 32/105/103 20/111/109
f 20/111/109 32/105/103 21/112/110
f 21/112/110 32/105/103 22/113/111
f 22/113/111 32/105/103 23/114/112
f 23/114/112 32/105/103 31/115/113
f 23/114/112 31/115/113 24/116/114
f 24/116/114 31/115/113 30/117/115
f 24/116/114 30/117/115 25/118/116
f 25/118/116 30/117/115 29/119/117
f 25/118/116 29/119/117 26/120/118
f 26/120/118 29/119/117 28/121/119
f 26/120/118 28/121/119 27/122/120
# 60 vertices
# 122 texture params
# 120 normals
# 116 facets

# 1 groups
