# WaveFront *.obj file (generated by Autodesk ATF)

mtllib B.mtl

g B

v -6.114089 -1.302708 -4.615287
v -4.619796 -1.291314 -4.745523
v -4.619796 0.003739 -4.632221
v -6.114089 -0.007655 -4.501984
v -6.114089 0.789301 -4.432260
v -4.619796 0.800695 -4.562496
v -4.619796 2.095748 -4.449193
v -6.114089 2.084354 -4.318957
v -6.911044 2.875232 -4.179773
v -4.320938 2.894982 -4.405516
v -3.822841 2.400683 -4.492506
v -3.822841 0.906391 -4.623240
v -4.320938 0.404496 -4.623405
v -3.822841 -0.089804 -4.710395
v -3.822841 -1.584096 -4.841129
v -4.320938 -2.085991 -4.841295
v -6.911044 -2.105741 -4.615552
v -3.748239 -0.067546 5.361543
v -3.748239 1.227507 5.474845
v -5.242531 1.216113 5.605081
v -5.242531 -0.078940 5.491779
v -3.748239 -2.159555 5.178516
v -3.748239 -0.864502 5.291818
v -5.242531 -0.875896 5.422054
v -5.242531 -2.170949 5.308752
v -3.449381 2.026742 5.518523
v -2.951283 1.532442 5.431533
v -2.951283 0.038150 5.300799
v -3.449381 -0.463745 5.300633
v -2.951283 -0.958045 5.213643
v -2.951283 -2.452337 5.082910
v -3.449381 -2.954232 5.082744
v -6.039487 -2.973982 5.308487
v -6.039487 2.006991 5.744265
vt -0.075000 -0.170000 0.000000
vt -0.105000 -0.250000 0.000000
vt 0.075000 -0.170000 0.000000
vt 0.155000 -0.250000 0.000000
vt 0.075000 -0.040000 0.000000
vt 0.075000 0.040000 0.000000
vt -0.075000 0.040000 0.000000
vt -0.075000 -0.040000 0.000000
vt -0.155000 -0.050000 0.000000
vt -0.155000 -0.200000 0.000000
vt -0.105000 0.000000 0.000000
vt -0.155000 0.050000 0.000000
vt -0.075000 0.170000 0.000000
vt -0.155000 0.200000 0.000000
vt -0.105000 0.250000 0.000000
vt 0.075000 0.170000 0.000000
vt 0.155000 0.250000 0.000000
vt 0.130000 0.500000 0.000000
vt 0.000000 0.500000 0.000000
vt 0.130000 -0.500000 0.000000
vt 0.000000 -0.500000 0.000000
vt 0.150000 0.500000 0.000000
vt -0.000000 0.500000 0.000000
vt 0.150000 -0.500000 0.000000
vt 0.000000 -0.500000 0.000000
vt 0.130000 0.500000 0.000000
vt 0.000000 0.500000 0.000000
vt 0.130000 -0.500000 0.000000
vt -0.000000 -0.500000 0.000000
vt 0.150000 0.500000 0.000000
vt 0.000000 0.500000 0.000000
vt 0.150000 -0.500000 0.000000
vt -0.000000 -0.500000 0.000000
vt 0.130000 0.500000 0.000000
vt -0.000000 0.500000 0.000000
vt 0.130000 -0.500000 0.000000
vt 0.000000 -0.500000 0.000000
vt 0.150000 0.500000 0.000000
vt -0.000000 0.500000 0.000000
vt 0.150000 -0.500000 0.000000
vt 0.000000 -0.500000 0.000000
vt 0.130000 0.500000 0.000000
vt 0.000000 0.500000 0.000000
vt 0.130000 -0.500000 0.000000
vt 0.000000 -0.500000 0.000000
vt 0.150000 0.500000 0.000000
vt 0.000000 0.500000 0.000000
vt 0.150000 -0.500000 0.000000
vt -0.000000 -0.500000 0.000000
vt 0.070711 0.500000 0.000000
vt 0.000000 0.500000 0.000000
vt 0.070711 -0.500000 0.000000
vt 0.000000 -0.500000 0.000000
vt 0.150000 0.500000 0.000000
vt -0.000000 0.500000 0.000000
vt 0.150000 -0.500000 0.000000
vt -0.000000 -0.500000 0.000000
vt 0.070711 0.500000 0.000000
vt -0.000000 0.500000 0.000000
vt 0.070711 -0.500000 0.000000
vt 0.000000 -0.500000 0.000000
vt 0.070711 0.500000 0.000000
vt -0.000000 0.500000 0.000000
vt 0.070711 -0.500000 0.000000
vt -0.000000 -0.500000 0.000000
vt 0.150000 0.500000 0.000000
vt -0.000000 0.500000 0.000000
vt 0.150000 -0.500000 0.000000
vt 0.000000 -0.500000 0.000000
vt 0.070711 0.500000 0.000000
vt -0.000000 0.500000 0.000000
vt 0.070711 -0.500000 0.000000
vt 0.000000 -0.500000 0.000000
vt 0.260000 0.500000 0.000000
vt -0.000000 0.500000 0.000000
vt 0.260000 -0.500000 0.000000
vt 0.000000 -0.500000 0.000000
vt 0.500000 0.500000 0.000000
vt -0.000000 0.500000 0.000000
vt 0.500000 -0.500000 0.000000
vt -0.000000 -0.500000 0.000000
vt 0.260000 0.500000 0.000000
vt 0.000000 0.500000 0.000000
vt 0.260000 -0.500000 0.000000
vt -0.000000 -0.500000 0.000000
vt -0.075000 -0.170000 0.000000
vt 0.105000 -0.250000 0.000000
vt 0.075000 -0.170000 0.000000
vt 0.155000 -0.200000 0.000000
vt 0.155000 -0.050000 0.000000
vt -0.155000 -0.250000 0.000000
vt -0.075000 -0.040000 0.000000
vt -0.075000 0.040000 0.000000
vt 0.075000 0.040000 0.000000
vt 0.075000 -0.040000 0.000000
vt 0.105000 0.000000 0.000000
vt -0.155000 0.250000 0.000000
vt -0.075000 0.170000 0.000000
vt 0.105000 0.250000 0.000000
vt 0.075000 0.170000 0.000000
vt 0.155000 0.200000 0.000000
vt 0.155000 0.050000 0.000000
vn -0.008716 0.008682 -0.099240
vn -0.008716 0.008682 -0.099240
vn -0.008716 0.008682 -0.099240
vn -0.008716 0.008682 -0.099240
vn -0.008716 0.008682 -0.099240
vn -0.008716 0.008682 -0.099240
vn -0.008716 0.008682 -0.099240
vn -0.008716 0.008682 -0.099240
vn -0.008716 0.008682 -0.099240
vn -0.008716 0.008682 -0.099240
vn -0.008716 0.008682 -0.099240
vn -0.008716 0.008682 -0.099240
vn -0.008716 0.008682 -0.099240
vn -0.008716 0.008682 -0.099240
vn -0.008716 0.008682 -0.099240
vn -0.008716 0.008682 -0.099240
vn -0.008716 0.008682 -0.099240
vn -0.099619 -0.000760 0.008682
vn -0.099619 -0.000760 0.008682
vn -0.099619 -0.000760 0.008682
vn -0.099619 -0.000760 0.008682
vn 0.000000 -0.099619 -0.008716
vn 0.000000 -0.099619 -0.008716
vn 0.000000 -0.099619 -0.008716
vn 0.000000 -0.099619 -0.008716
vn 0.099619 0.000760 -0.008682
vn 0.099619 0.000760 -0.008682
vn 0.099619 0.000760 -0.008682
vn 0.099619 0.000760 -0.008682
vn 0.000000 0.099619 0.008716
vn 0.000000 0.099619 0.008716
vn 0.000000 0.099619 0.008716
vn 0.000000 0.099619 0.008716
vn -0.099619 -0.000760 0.008682
vn -0.099619 -0.000760 0.008682
vn -0.099619 -0.000760 0.008682
vn -0.099619 -0.000760 0.008682
vn 0.000000 -0.099619 -0.008716
vn 0.000000 -0.099619 -0.008716
vn 0.000000 -0.099619 -0.008716
vn 0.000000 -0.099619 -0.008716
vn 0.099619 0.000760 -0.008682
vn 0.099619 0.000760 -0.008682
vn 0.099619 0.000760 -0.008682
vn 0.099619 0.000760 -0.008682
vn 0.000000 0.099619 0.008716
vn 0.000000 0.099619 0.008716
vn 0.000000 0.099619 0.008716
vn 0.000000 0.099619 0.008716
vn 0.070442 0.070979 0.000023
vn 0.070442 0.070979 0.000023
vn 0.070442 0.070979 0.000023
vn 0.070442 0.070979 0.000023
vn 0.099619 0.000760 -0.008682
vn 0.099619 0.000760 -0.008682
vn 0.099619 0.000760 -0.008682
vn 0.099619 0.000760 -0.008682
vn 0.070442 -0.069904 -0.012302
vn 0.070442 -0.069904 -0.012302
vn 0.070442 -0.069904 -0.012302
vn 0.070442 -0.069904 -0.012302
vn 0.070442 0.070979 0.000023
vn 0.070442 0.070979 0.000023
vn 0.070442 0.070979 0.000023
vn 0.070442 0.070979 0.000023
vn 0.099619 0.000760 -0.008682
vn 0.099619 0.000760 -0.008682
vn 0.099619 0.000760 -0.008682
vn 0.099619 0.000760 -0.008682
vn 0.070442 -0.069904 -0.012302
vn 0.070442 -0.069904 -0.012302
vn 0.070442 -0.069904 -0.012302
vn 0.070442 -0.069904 -0.012302
vn 0.000000 -0.099619 -0.008716
vn 0.000000 -0.099619 -0.008716
vn 0.000000 -0.099619 -0.008716
vn 0.000000 -0.099619 -0.008716
vn -0.099619 -0.000760 0.008682
vn -0.099619 -0.000760 0.008682
vn -0.099619 -0.000760 0.008682
vn -0.099619 -0.000760 0.008682
vn -0.000000 0.099619 0.008716
vn -0.000000 0.099619 0.008716
vn -0.000000 0.099619 0.008716
vn -0.000000 0.099619 0.008716
vn 0.008716 -0.008682 0.099240
vn 0.008716 -0.008682 0.099240
vn 0.008716 -0.008682 0.099240
vn 0.008716 -0.008682 0.099240
vn 0.008716 -0.008682 0.099240
vn 0.008716 -0.008682 0.099240
vn 0.008716 -0.008682 0.099240
vn 0.008716 -0.008682 0.099240
vn 0.008716 -0.008682 0.099240
vn 0.008716 -0.008682 0.099240
vn 0.008716 -0.008682 0.099240
vn 0.008716 -0.008682 0.099240
vn 0.008716 -0.008682 0.099240
vn 0.008716 -0.008682 0.099240
vn 0.008716 -0.008682 0.099240
vn 0.008716 -0.008682 0.099240
vn 0.008716 -0.008682 0.099240
usemtl Stahl_-_satiniert
f 2/1/1 16/2/2 1/3/3
f 1/3/3 16/2/2 17/4/4
f 1/3/3 17/4/4 4/5/5
f 4/5/5 17/4/4 5/6/6
f 4/5/5 5/6/6 6/7/7
f 3/8/8 14/9/9 2/1/1
f 2/1/1 14/9/9 15/10/10
f 2/1/1 15/10/10 16/2/2
f 4/5/5 6/7/7 3/8/8
f 3/8/8 6/7/7 13/11/11
f 3/8/8 13/11/11 14/9/9
f 13/11/11 6/7/7 12/12/12
f 12/12/12 6/7/7 7/13/13
f 12/12/12 7/13/13 11/14/14
f 11/14/14 7/13/13 10/15/15
f 10/15/15 7/13/13 8/16/16
f 10/15/15 8/16/16 9/17/17
f 9/17/17 8/16/16 5/6/6
f 9/17/17 5/6/6 17/4/4
f 18/18/18 19/19/19 6/20/20
f 6/20/20 19/19/19 7/21/21
f 19/22/22 20/23/23 7/24/24
f 7/24/24 20/23/23 8/25/25
f 20/26/26 21/27/27 8/28/28
f 8/28/28 21/27/27 5/29/29
f 21/30/30 18/31/31 5/32/32
f 5/32/32 18/31/31 6/33/33
f 22/34/34 23/35/35 2/36/36
f 2/36/36 23/35/35 3/37/37
f 23/38/38 24/39/39 3/40/40
f 3/40/40 24/39/39 4/41/41
f 24/42/42 25/43/43 4/44/44
f 4/44/44 25/43/43 1/45/45
f 25/46/46 22/47/47 1/48/48
f 1/48/48 22/47/47 2/49/49
f 26/50/50 27/51/51 10/52/52
f 10/52/52 27/51/51 11/53/53
f 27/54/54 28/55/55 11/56/56
f 11/56/56 28/55/55 12/57/57
f 28/58/58 29/59/59 12/60/60
f 12/60/60 29/59/59 13/61/61
f 29/62/62 30/63/63 13/64/64
f 13/64/64 30/63/63 14/65/65
f 30/66/66 31/67/67 14/68/68
f 14/68/68 31/67/67 15/69/69
f 31/70/70 32/71/71 15/72/72
f 15/72/72 32/71/71 16/73/73
f 32/74/74 33/75/75 16/76/76
f 16/76/76 33/75/75 17/77/77
f 33/78/78 34/79/79 17/80/80
f 17/80/80 34/79/79 9/81/81
f 34/82/82 26/83/83 9/84/84
f 9/84/84 26/83/83 10/85/85
f 25/86/86 32/87/87 22/88/88
f 22/88/88 32/87/87 31/89/89
f 22/88/88 31/89/89 30/90/90
f 32/87/87 25/86/86 33/91/91
f 33/91/91 25/86/86 24/92/92
f 33/91/91 24/92/92 21/93/93
f 21/93/93 24/92/92 18/94/94
f 18/94/94 24/92/92 23/95/95
f 18/94/94 23/95/95 29/96/96
f 29/96/96 23/95/95 30/90/90
f 30/90/90 23/95/95 22/88/88
f 33/91/91 21/93/93 34/97/97
f 34/97/97 21/93/93 20/98/98
f 34/97/97 20/98/98 26/99/99
f 26/99/99 20/98/98 19/100/100
f 26/99/99 19/100/100 27/101/101
f 27/101/101 19/100/100 28/102/102
f 28/102/102 19/100/100 18/94/94
f 28/102/102 18/94/94 29/96/96
# 34 vertices
# 102 texture params
# 102 normals
# 72 facets

# 1 groups
