# WaveFront *.obj file (generated by Autodesk ATF)

mtllib S.mtl

g S

v 4.134718 2.157418 -5.212644
v 3.782510 1.802525 -5.212762
v 3.782510 1.147918 -5.270032
v 4.134718 0.798396 -5.331543
v 5.130912 0.805992 -5.418368
v 5.946947 0.240821 -5.539480
v 5.946947 -1.303281 -5.674572
v 5.242531 -2.013068 -5.674806
v 3.050903 -2.029780 -5.483793
v 3.050903 -1.232824 -5.414068
v 4.797783 -1.219504 -5.566319
v 5.149991 -0.864610 -5.566202
v 5.149991 -0.276515 -5.514750
v 4.741974 0.006071 -5.454194
v 3.689970 -0.001951 -5.362506
v 2.985554 0.697094 -5.239483
v 2.985554 2.241195 -5.104392
v 3.689970 2.950983 -5.104157
v 5.881598 2.967694 -5.295170
v 5.881598 2.170738 -5.364895
v 4.654067 0.934284 4.711277
v 4.654067 0.279677 4.654006
v 5.006275 -0.069845 4.592495
v 6.002470 -0.062249 4.505671
v 6.818505 -0.627420 4.384559
v 6.818505 -2.171522 4.249467
v 6.114089 -2.881309 4.249233
v 3.922460 -2.898021 4.440246
v 3.922460 -2.101065 4.509970
v 5.669341 -2.087745 4.357720
v 6.021549 -1.732851 4.357837
v 6.021549 -1.144756 4.409289
v 5.613531 -0.862170 4.469845
v 4.561527 -0.870192 4.561533
v 3.857111 -0.171147 4.684555
v 3.857111 1.372955 4.819647
v 4.561527 2.082742 4.819881
v 6.753156 2.099453 4.628868
v 6.753156 1.302498 4.559144
v 5.006275 1.289177 4.711394
vt 0.068635 0.134389 0.000000
vt 0.077925 0.249745 0.000000
vt 0.033280 0.169745 0.000000
vt -0.142075 0.249745 0.000000
vt -0.142075 0.169745 0.000000
vt 0.068635 0.068679 0.000000
vt 0.148635 0.024034 0.000000
vt 0.148635 0.179034 0.000000
vt 0.077925 -0.046677 0.000000
vt 0.033280 0.033323 0.000000
vt -0.027678 -0.046677 0.000000
vt -0.066720 0.033323 0.000000
vt -0.068635 -0.075355 0.000000
vt -0.148635 -0.024034 0.000000
vt -0.148635 -0.179034 0.000000
vt -0.068635 -0.134389 0.000000
vt -0.077925 -0.249745 0.000000
vt -0.033280 -0.169745 0.000000
vt 0.142075 -0.249745 0.000000
vt 0.142075 -0.169745 0.000000
vt 0.065711 0.500000 0.000000
vt 0.000000 0.500000 0.000000
vt 0.065711 -0.500000 0.000000
vt 0.000000 -0.500000 0.000000
vt 0.050000 0.500000 0.000000
vt -0.000000 0.500000 0.000000
vt 0.050000 -0.500000 0.000000
vt -0.000000 -0.500000 0.000000
vt 0.100000 0.500000 0.000000
vt 0.000000 0.500000 0.000000
vt 0.100000 -0.500000 0.000000
vt -0.000000 -0.500000 0.000000
vt 0.100000 0.500000 0.000000
vt 0.000000 0.500000 0.000000
vt 0.100000 -0.500000 0.000000
vt 0.000000 -0.500000 0.000000
vt 0.155000 0.500000 0.000000
vt -0.000000 0.500000 0.000000
vt 0.155000 -0.500000 0.000000
vt -0.000000 -0.500000 0.000000
vt 0.100000 0.500000 0.000000
vt -0.000000 0.500000 0.000000
vt 0.100000 -0.500000 0.000000
vt 0.000000 -0.500000 0.000000
vt 0.220000 0.500000 0.000000
vt -0.000000 0.500000 0.000000
vt 0.220000 -0.500000 0.000000
vt 0.000000 -0.500000 0.000000
vt 0.080000 0.500000 0.000000
vt -0.000000 0.500000 0.000000
vt 0.080000 -0.500000 0.000000
vt 0.000000 -0.500000 0.000000
vt 0.175355 0.500000 0.000000
vt 0.000000 0.500000 0.000000
vt 0.175355 -0.500000 0.000000
vt -0.000000 -0.500000 0.000000
vt 0.050000 0.500000 0.000000
vt 0.000000 0.500000 0.000000
vt 0.050000 -0.500000 0.000000
vt -0.000000 -0.500000 0.000000
vt 0.059034 0.500000 0.000000
vt 0.000000 0.500000 0.000000
vt 0.059034 -0.500000 0.000000
vt 0.000000 -0.500000 0.000000
vt 0.050000 0.500000 0.000000
vt -0.000000 0.500000 0.000000
vt 0.050000 -0.500000 0.000000
vt 0.000000 -0.500000 0.000000
vt 0.105602 0.500000 0.000000
vt -0.000000 0.500000 0.000000
vt 0.105602 -0.500000 0.000000
vt 0.000000 -0.500000 0.000000
vt 0.100000 0.500000 0.000000
vt -0.000000 0.500000 0.000000
vt 0.100000 -0.500000 0.000000
vt -0.000000 -0.500000 0.000000
vt 0.155000 0.500000 0.000000
vt -0.000000 0.500000 0.000000
vt 0.155000 -0.500000 0.000000
vt -0.000000 -0.500000 0.000000
vt 0.100000 0.500000 0.000000
vt 0.000000 0.500000 0.000000
vt 0.100000 -0.500000 0.000000
vt -0.000000 -0.500000 0.000000
vt 0.220000 0.500000 0.000000
vt 0.000000 0.500000 0.000000
vt 0.220000 -0.500000 0.000000
vt -0.000000 -0.500000 0.000000
vt 0.080000 0.500000 0.000000
vt -0.000000 0.500000 0.000000
vt 0.080000 -0.500000 0.000000
vt -0.000000 -0.500000 0.000000
vt 0.175355 0.500000 0.000000
vt -0.000000 0.500000 0.000000
vt 0.175355 -0.500000 0.000000
vt 0.000000 -0.500000 0.000000
vt 0.050000 0.500000 0.000000
vt -0.000000 0.500000 0.000000
vt 0.050000 -0.500000 0.000000
vt 0.000000 -0.500000 0.000000
vt -0.033280 0.169745 0.000000
vt -0.077925 0.249745 0.000000
vt -0.068635 0.134389 0.000000
vt -0.148635 0.179034 0.000000
vt -0.148635 0.024034 0.000000
vt 0.142075 0.169745 0.000000
vt 0.142075 0.249745 0.000000
vt -0.068635 0.068679 0.000000
vt -0.077925 -0.046677 0.000000
vt -0.033280 0.033323 0.000000
vt 0.027678 -0.046677 0.000000
vt 0.066720 0.033323 0.000000
vt 0.068635 -0.075355 0.000000
vt 0.148635 -0.024034 0.000000
vt 0.148635 -0.179034 0.000000
vt 0.068635 -0.134389 0.000000
vt 0.077925 -0.249745 0.000000
vt 0.033280 -0.169745 0.000000
vt -0.142075 -0.249745 0.000000
vt -0.142075 -0.169745 0.000000
vn -0.008716 0.008682 -0.099240
vn -0.008716 0.008682 -0.099240
vn -0.008716 0.008682 -0.099240
vn -0.008716 0.008682 -0.099240
vn -0.008716 0.008682 -0.099240
vn -0.008716 0.008682 -0.099240
vn -0.008716 0.008682 -0.099240
vn -0.008716 0.008682 -0.099240
vn -0.008716 0.008682 -0.099240
vn -0.008716 0.008682 -0.099240
vn -0.008716 0.008682 -0.099240
vn -0.008716 0.008682 -0.099240
vn -0.008716 0.008682 -0.099240
vn -0.008716 0.008682 -0.099240
vn -0.008716 0.008682 -0.099240
vn -0.008716 0.008682 -0.099240
vn -0.008716 0.008682 -0.099240
vn -0.008716 0.008682 -0.099240
vn -0.008716 0.008682 -0.099240
vn -0.008716 0.008682 -0.099240
vn 0.099619 0.000760 -0.008682
vn 0.099619 0.000760 -0.008682
vn 0.099619 0.000760 -0.008682
vn 0.099619 0.000760 -0.008682
vn 0.070442 0.070979 0.000023
vn 0.070442 0.070979 0.000023
vn 0.070442 0.070979 0.000023
vn 0.070442 0.070979 0.000023
vn -0.000000 0.099619 0.008716
vn -0.000000 0.099619 0.008716
vn -0.000000 0.099619 0.008716
vn -0.000000 0.099619 0.008716
vn 0.057139 0.082039 0.002159
vn 0.057139 0.082039 0.002159
vn 0.057139 0.082039 0.002159
vn 0.057139 0.082039 0.002159
vn 0.099619 0.000760 -0.008682
vn 0.099619 0.000760 -0.008682
vn 0.099619 0.000760 -0.008682
vn 0.099619 0.000760 -0.008682
vn 0.070442 -0.069904 -0.012302
vn 0.070442 -0.069904 -0.012302
vn 0.070442 -0.069904 -0.012302
vn 0.070442 -0.069904 -0.012302
vn -0.000000 -0.099619 -0.008716
vn -0.000000 -0.099619 -0.008716
vn -0.000000 -0.099619 -0.008716
vn -0.000000 -0.099619 -0.008716
vn -0.099619 -0.000760 0.008682
vn -0.099619 -0.000760 0.008682
vn -0.099619 -0.000760 0.008682
vn -0.099619 -0.000760 0.008682
vn -0.000000 0.099619 0.008716
vn -0.000000 0.099619 0.008716
vn -0.000000 0.099619 0.008716
vn -0.000000 0.099619 0.008716
vn -0.070442 0.069904 0.012302
vn -0.070442 0.069904 0.012302
vn -0.070442 0.069904 0.012302
vn -0.070442 0.069904 0.012302
vn -0.099619 -0.000760 0.008682
vn -0.099619 -0.000760 0.008682
vn -0.099619 -0.000760 0.008682
vn -0.099619 -0.000760 0.008682
vn -0.057139 -0.082039 -0.002159
vn -0.057139 -0.082039 -0.002159
vn -0.057139 -0.082039 -0.002159
vn -0.057139 -0.082039 -0.002159
vn -0.000000 -0.099619 -0.008716
vn -0.000000 -0.099619 -0.008716
vn -0.000000 -0.099619 -0.008716
vn -0.000000 -0.099619 -0.008716
vn -0.070442 -0.070979 -0.000023
vn -0.070442 -0.070979 -0.000023
vn -0.070442 -0.070979 -0.000023
vn -0.070442 -0.070979 -0.000023
vn -0.099619 -0.000760 0.008682
vn -0.099619 -0.000760 0.008682
vn -0.099619 -0.000760 0.008682
vn -0.099619 -0.000760 0.008682
vn -0.070442 0.069904 0.012302
vn -0.070442 0.069904 0.012302
vn -0.070442 0.069904 0.012302
vn -0.070442 0.069904 0.012302
vn 0.000000 0.099619 0.008716
vn 0.000000 0.099619 0.008716
vn 0.000000 0.099619 0.008716
vn 0.000000 0.099619 0.008716
vn 0.099619 0.000760 -0.008682
vn 0.099619 0.000760 -0.008682
vn 0.099619 0.000760 -0.008682
vn 0.099619 0.000760 -0.008682
vn -0.000000 -0.099619 -0.008716
vn -0.000000 -0.099619 -0.008716
vn -0.000000 -0.099619 -0.008716
vn -0.000000 -0.099619 -0.008716
vn 0.070442 -0.069904 -0.012302
vn 0.070442 -0.069904 -0.012302
vn 0.070442 -0.069904 -0.012302
vn 0.070442 -0.069904 -0.012302
vn 0.008716 -0.008682 0.099240
vn 0.008716 -0.008682 0.099240
vn 0.008716 -0.008682 0.099240
vn 0.008716 -0.008682 0.099240
vn 0.008716 -0.008682 0.099240
vn 0.008716 -0.008682 0.099240
vn 0.008716 -0.008682 0.099240
vn 0.008716 -0.008682 0.099240
vn 0.008716 -0.008682 0.099240
vn 0.008716 -0.008682 0.099240
vn 0.008716 -0.008682 0.099240
vn 0.008716 -0.008682 0.099240
vn 0.008716 -0.008682 0.099240
vn 0.008716 -0.008682 0.099240
vn 0.008716 -0.008682 0.099240
vn 0.008716 -0.008682 0.099240
vn 0.008716 -0.008682 0.099240
vn 0.008716 -0.008682 0.099240
vn 0.008716 -0.008682 0.099240
vn 0.008716 -0.008682 0.099240
usemtl Stahl_-_satiniert
f 2/1/1 18/2/2 1/3/3
f 1/3/3 18/2/2 19/4/4
f 1/3/3 19/4/4 20/5/5
f 3/6/6 16/7/7 2/1/1
f 2/1/1 16/7/7 17/8/8
f 2/1/1 17/8/8 18/2/2
f 16/7/7 3/6/6 15/9/9
f 15/9/9 3/6/6 4/10/10
f 15/9/9 4/10/10 14/11/11
f 14/11/11 4/10/10 5/12/12
f 14/11/11 5/12/12 13/13/13
f 13/13/13 5/12/12 6/14/14
f 13/13/13 6/14/14 7/15/15
f 13/13/13 7/15/15 12/16/16
f 12/16/16 7/15/15 8/17/17
f 12/16/16 8/17/17 11/18/18
f 11/18/18 8/17/17 9/19/19
f 11/18/18 9/19/19 10/20/20
f 21/21/21 22/22/22 2/23/23
f 2/23/23 22/22/22 3/24/24
f 22/25/25 23/26/26 3/27/27
f 3/27/27 23/26/26 4/28/28
f 23/29/29 24/30/30 4/31/31
f 4/31/31 24/30/30 5/32/32
f 24/33/33 25/34/34 5/35/35
f 5/35/35 25/34/34 6/36/36
f 25/37/37 26/38/38 6/39/39
f 6/39/39 26/38/38 7/40/40
f 26/41/41 27/42/42 7/43/43
f 7/43/43 27/42/42 8/44/44
f 27/45/45 28/46/46 8/47/47
f 8/47/47 28/46/46 9/48/48
f 28/49/49 29/50/50 9/51/51
f 9/51/51 29/50/50 10/52/52
f 29/53/53 30/54/54 10/55/55
f 10/55/55 30/54/54 11/56/56
f 30/57/57 31/58/58 11/59/59
f 11/59/59 31/58/58 12/60/60
f 31/61/61 32/62/62 12/63/63
f 12/63/63 32/62/62 13/64/64
f 32/65/65 33/66/66 13/67/67
f 13/67/67 33/66/66 14/68/68
f 33/69/69 34/70/70 14/71/71
f 14/71/71 34/70/70 15/72/72
f 34/73/73 35/74/74 15/75/75
f 15/75/75 35/74/74 16/76/76
f 35/77/77 36/78/78 16/79/79
f 16/79/79 36/78/78 17/80/80
f 36/81/81 37/82/82 17/83/83
f 17/83/83 37/82/82 18/84/84
f 37/85/85 38/86/86 18/87/87
f 18/87/87 38/86/86 19/88/88
f 38/89/89 39/90/90 19/91/91
f 19/91/91 39/90/90 20/92/92
f 39/93/93 40/94/94 20/95/95
f 20/95/95 40/94/94 1/96/96
f 40/97/97 21/98/98 1/99/99
f 1/99/99 21/98/98 2/100/100
f 40/101/101 37/102/102 21/103/103
f 21/103/103 37/102/102 36/104/104
f 21/103/103 36/104/104 35/105/105
f 39/106/106 38/107/107 40/101/101
f 40/101/101 38/107/107 37/102/102
f 21/103/103 35/105/105 22/108/108
f 22/108/108 35/105/105 34/109/109
f 22/108/108 34/109/109 23/110/110
f 23/110/110 34/109/109 33/111/111
f 23/110/110 33/111/111 24/112/112
f 24/112/112 33/111/111 32/113/113
f 24/112/112 32/113/113 25/114/114
f 25/114/114 32/113/113 26/115/115
f 26/115/115 32/113/113 31/116/116
f 26/115/115 31/116/116 27/117/117
f 27/117/117 31/116/116 30/118/118
f 27/117/117 30/118/118 28/119/119
f 28/119/119 30/118/118 29/120/120
# 40 vertices
# 120 texture params
# 120 normals
# 76 facets

# 1 groups
